<svg width="279" height="74" viewBox="0 0 279 74" fill="none" xmlns="http://www.w3.org/2000/svg">
<g filter="url(#filter0_i)">
<ellipse cx="40.3554" cy="36.5" rx="40.3554" ry="36.5" fill="#E6F351"/>
</g>
<path d="M27.7404 44.456C25.5804 44.456 23.9084 44.176 22.7244 43.616C22.7244 42.192 22.9324 40.8 23.3484 39.44C23.3804 39.44 23.4284 39.44 23.4924 39.44C23.5564 39.424 23.6124 39.416 23.6604 39.416C23.9484 39.416 24.1964 39.464 24.4044 39.56L24.7884 42.752C25.7964 42.992 26.6604 43.112 27.3804 43.112C27.9404 43.112 28.5164 43.048 29.1084 42.92C29.7004 42.792 30.2124 42.528 30.6444 42.128C31.0924 41.728 31.3164 41.184 31.3164 40.496C31.3164 39.872 31.2204 39.368 31.0284 38.984C30.8524 38.6 30.4284 38.184 29.7564 37.736C29.1004 37.272 28.0684 36.736 26.6604 36.128C25.2204 35.488 24.2044 34.808 23.6124 34.088C23.0364 33.352 22.7644 32.368 22.7964 31.136C22.8124 29.728 23.4044 28.656 24.5724 27.92C25.7404 27.184 27.2044 26.816 28.9644 26.816C30.4524 26.816 31.8124 27.056 33.0444 27.536C33.0924 28.752 32.8444 30.104 32.3004 31.592C32.2364 31.608 32.1324 31.616 31.9884 31.616C31.7164 31.616 31.4684 31.568 31.2444 31.472L30.9804 28.28C30.2604 28.072 29.5404 27.968 28.8204 27.968C27.7644 27.968 26.8764 28.2 26.1564 28.664C25.4524 29.112 25.0924 29.8 25.0764 30.728C25.0604 31.464 25.2684 32.064 25.7004 32.528C26.1484 32.992 27.0844 33.544 28.5084 34.184C29.5484 34.648 30.3564 35.04 30.9324 35.36C31.5084 35.664 32.0284 36.032 32.4924 36.464C32.9724 36.88 33.3164 37.36 33.5244 37.904C33.7324 38.448 33.8364 39.088 33.8364 39.824C33.8044 41.312 33.1884 42.456 31.9884 43.256C30.7884 44.056 29.3724 44.456 27.7404 44.456ZM45.4745 37.16H36.1145C36.0985 36.936 36.1145 36.648 36.1625 36.296C36.2265 35.944 36.2985 35.72 36.3785 35.624H45.7385C45.7065 36.376 45.6185 36.888 45.4745 37.16ZM61.4674 41.384C61.8034 41.48 61.9874 41.744 62.0194 42.176C60.4514 43.712 58.6274 44.48 56.5474 44.48C55.4594 44.48 54.4193 44.304 53.4273 43.952C52.4513 43.584 51.5793 43.048 50.8113 42.344C50.0593 41.64 49.4513 40.712 48.9873 39.56C48.5393 38.392 48.3153 37.072 48.3153 35.6C48.3153 34.144 48.5633 32.84 49.0593 31.688C49.5713 30.52 50.2434 29.576 51.0754 28.856C51.9234 28.136 52.8274 27.6 53.7874 27.248C54.7634 26.896 55.7634 26.72 56.7874 26.72C59.0273 26.72 60.8033 27.08 62.1154 27.8C62.1794 28.936 61.9314 30.248 61.3713 31.736C60.9714 31.8 60.6194 31.76 60.3154 31.616L60.0514 28.52C59.1874 28.152 58.1554 27.976 56.9554 27.992C55.2914 27.992 53.8994 28.728 52.7793 30.2C51.6594 31.656 51.0994 33.456 51.0994 35.6C51.0994 37.92 51.5874 39.768 52.5634 41.144C53.5554 42.52 54.9714 43.208 56.8114 43.208C58.4754 43.208 60.0274 42.6 61.4674 41.384Z" fill="#FCF3FC"/>
<path d="M86.235 44.48C84.555 44.48 83.267 44.192 82.371 43.616C81.491 43.024 81.051 42.16 81.051 41.024C81.051 40.448 81.243 39.976 81.627 39.608C82.027 39.224 82.539 39.032 83.163 39.032C83.531 39.048 83.811 39.144 84.003 39.32C84.195 39.48 84.291 39.632 84.291 39.776C84.291 39.792 84.211 39.848 84.051 39.944C83.891 40.04 83.747 40.184 83.619 40.376C83.491 40.568 83.427 40.832 83.427 41.168C83.427 41.92 83.651 42.504 84.099 42.92C84.563 43.32 85.275 43.52 86.235 43.52C86.891 43.52 87.467 43.392 87.963 43.136C88.459 42.88 88.835 42.544 89.091 42.128C89.363 41.696 89.499 41.248 89.499 40.784C89.499 40.208 89.331 39.712 88.995 39.296C88.675 38.88 88.275 38.536 87.795 38.264C87.315 37.976 86.659 37.648 85.827 37.28C84.867 36.848 84.091 36.456 83.499 36.104C82.907 35.752 82.403 35.288 81.987 34.712C81.571 34.12 81.363 33.392 81.363 32.528C81.363 31.136 81.835 30.096 82.779 29.408C83.739 28.72 84.995 28.376 86.547 28.376C87.763 28.376 88.819 28.632 89.715 29.144C90.627 29.656 91.083 30.408 91.083 31.4C91.083 31.976 90.883 32.456 90.483 32.84C90.099 33.208 89.595 33.392 88.971 33.392C88.603 33.376 88.323 33.288 88.131 33.128C87.939 32.952 87.843 32.792 87.843 32.648C87.843 32.632 87.947 32.576 88.155 32.48C88.379 32.384 88.571 32.24 88.731 32.048C88.907 31.856 88.995 31.592 88.995 31.256C88.995 30.664 88.763 30.2 88.299 29.864C87.851 29.528 87.275 29.36 86.571 29.36C85.595 29.36 84.851 29.592 84.339 30.056C83.843 30.504 83.595 31.064 83.595 31.736C83.595 32.296 83.747 32.768 84.051 33.152C84.355 33.52 84.843 33.888 85.515 34.256C86.059 34.544 86.651 34.832 87.291 35.12C88.315 35.584 89.123 36.008 89.715 36.392C90.323 36.776 90.827 37.28 91.227 37.904C91.643 38.528 91.851 39.304 91.851 40.232C91.851 41.032 91.595 41.76 91.083 42.416C90.587 43.056 89.907 43.56 89.043 43.928C88.195 44.296 87.259 44.48 86.235 44.48ZM94.089 44.072C93.945 44.072 93.833 44.024 93.753 43.928C93.689 43.816 93.657 43.688 93.657 43.544C93.673 43.304 93.721 43.16 93.801 43.112C93.881 43.064 94.033 43.04 94.257 43.04C94.721 43.04 95.065 42.96 95.289 42.8C95.513 42.624 95.649 42.416 95.697 42.176C95.761 41.92 95.801 41.592 95.817 41.192V31.664C95.801 31.264 95.761 30.944 95.697 30.704C95.649 30.448 95.513 30.24 95.289 30.08C95.065 29.904 94.721 29.816 94.257 29.816H94.113C93.953 29.816 93.841 29.792 93.777 29.744C93.713 29.68 93.673 29.536 93.657 29.312C93.657 29.168 93.689 29.048 93.753 28.952C93.833 28.84 93.945 28.784 94.089 28.784C95.129 28.832 96.073 28.856 96.921 28.856C97.881 28.856 98.881 28.832 99.921 28.784C100.065 28.784 100.169 28.84 100.233 28.952C100.313 29.048 100.353 29.168 100.353 29.312C100.337 29.552 100.289 29.696 100.209 29.744C100.129 29.792 99.977 29.816 99.753 29.816C99.289 29.816 98.945 29.904 98.721 30.08C98.497 30.24 98.353 30.448 98.289 30.704C98.241 30.944 98.209 31.264 98.193 31.664V36.008C98.449 35.96 98.737 35.824 99.057 35.6C99.377 35.376 99.769 35.064 100.233 34.664C101.129 33.832 102.257 32.608 103.617 30.992C103.905 30.672 104.049 30.416 104.049 30.224C104.049 29.984 103.833 29.856 103.401 29.84C103.289 29.824 103.209 29.784 103.161 29.72C103.129 29.64 103.097 29.512 103.065 29.336C103.065 29.192 103.105 29.064 103.185 28.952C103.265 28.84 103.369 28.784 103.497 28.784C104.057 28.832 104.937 28.856 106.137 28.856C106.521 28.856 107.081 28.84 107.817 28.808L108.321 28.784C108.465 28.784 108.577 28.84 108.657 28.952C108.737 29.048 108.777 29.176 108.777 29.336C108.761 29.56 108.713 29.704 108.633 29.768C108.553 29.816 108.441 29.84 108.297 29.84C107.657 29.808 107.049 29.912 106.473 30.152C105.913 30.392 105.321 30.824 104.697 31.448L100.809 35.504C101.369 36.192 101.945 36.848 102.537 37.472C103.129 38.096 103.841 38.824 104.673 39.656C105.089 40.072 105.585 40.584 106.161 41.192C106.337 41.368 106.457 41.496 106.521 41.576C107.033 42.088 107.433 42.448 107.721 42.656C108.025 42.864 108.393 42.992 108.825 43.04C108.857 43.04 108.929 43.048 109.041 43.064C109.153 43.064 109.241 43.104 109.305 43.184C109.385 43.264 109.425 43.384 109.425 43.544C109.425 43.688 109.385 43.816 109.305 43.928C109.241 44.024 109.137 44.072 108.993 44.072C108.801 44.056 108.569 44.048 108.297 44.048C107.721 44.016 107.273 44 106.953 44H105.417C103.305 41.648 101.417 39.512 99.753 37.592C99.241 37 98.721 36.68 98.193 36.632V41.192C98.209 41.592 98.241 41.92 98.289 42.176C98.353 42.416 98.497 42.624 98.721 42.8C98.945 42.96 99.289 43.04 99.753 43.04H99.897C100.057 43.04 100.169 43.072 100.233 43.136C100.297 43.184 100.337 43.32 100.353 43.544C100.353 43.688 100.313 43.816 100.233 43.928C100.169 44.024 100.065 44.072 99.921 44.072C98.897 44.024 97.905 44 96.945 44C96.081 44 95.129 44.024 94.089 44.072ZM110.87 44.072C110.726 44.072 110.614 44.024 110.534 43.928C110.47 43.816 110.438 43.688 110.438 43.544C110.454 43.304 110.502 43.16 110.582 43.112C110.678 43.064 110.83 43.04 111.038 43.04C111.502 43.04 111.846 42.96 112.07 42.8C112.294 42.624 112.438 42.416 112.502 42.176C112.566 41.936 112.606 41.608 112.622 41.192V31.664C112.606 31.248 112.566 30.92 112.502 30.68C112.438 30.44 112.294 30.24 112.07 30.08C111.846 29.904 111.502 29.816 111.038 29.816H110.894C110.75 29.816 110.638 29.792 110.558 29.744C110.494 29.68 110.454 29.536 110.438 29.312C110.438 29.168 110.47 29.048 110.534 28.952C110.614 28.84 110.726 28.784 110.87 28.784C111.91 28.832 112.862 28.856 113.726 28.856C114.686 28.856 115.686 28.832 116.726 28.784C116.87 28.784 116.974 28.84 117.038 28.952C117.118 29.048 117.158 29.168 117.158 29.312C117.142 29.552 117.086 29.696 116.99 29.744C116.91 29.792 116.758 29.816 116.534 29.816C116.07 29.816 115.726 29.904 115.502 30.08C115.278 30.24 115.134 30.448 115.07 30.704C115.022 30.944 114.99 31.264 114.974 31.664V41.192C114.99 41.592 115.022 41.92 115.07 42.176C115.134 42.416 115.278 42.624 115.502 42.8C115.726 42.96 116.07 43.04 116.534 43.04H116.678C116.838 43.04 116.95 43.072 117.014 43.136C117.094 43.184 117.142 43.32 117.158 43.544C117.158 43.688 117.118 43.816 117.038 43.928C116.974 44.024 116.87 44.072 116.726 44.072C115.702 44.024 114.71 44 113.75 44C112.87 44 111.91 44.024 110.87 44.072ZM119.612 44.072C119.484 44.072 119.38 44.024 119.3 43.928C119.236 43.816 119.204 43.688 119.204 43.544C119.22 43.304 119.268 43.16 119.348 43.112C119.428 43.064 119.58 43.04 119.804 43.04C120.268 43.04 120.612 42.96 120.836 42.8C121.06 42.624 121.196 42.416 121.244 42.176C121.308 41.92 121.348 41.592 121.364 41.192V31.664C121.348 31.264 121.308 30.944 121.244 30.704C121.196 30.448 121.06 30.24 120.836 30.08C120.612 29.904 120.268 29.816 119.804 29.816H119.66C119.5 29.816 119.388 29.792 119.324 29.744C119.26 29.68 119.22 29.536 119.204 29.312C119.204 29.168 119.236 29.048 119.3 28.952C119.38 28.84 119.484 28.784 119.612 28.784C120.668 28.832 121.62 28.856 122.468 28.856C123.428 28.856 124.428 28.832 125.468 28.784C125.612 28.784 125.716 28.84 125.78 28.952C125.86 29.048 125.9 29.168 125.9 29.312C125.884 29.552 125.828 29.696 125.732 29.744C125.652 29.792 125.508 29.816 125.3 29.816C124.836 29.816 124.492 29.904 124.268 30.08C124.044 30.24 123.9 30.448 123.836 30.704C123.788 30.944 123.756 31.264 123.74 31.664V41.552C123.772 41.888 123.812 42.152 123.86 42.344C123.908 42.52 124.052 42.688 124.292 42.848C124.532 42.992 124.908 43.056 125.42 43.04H127.58C128.14 43.024 128.564 42.936 128.852 42.776C129.14 42.6 129.364 42.336 129.524 41.984C129.7 41.632 129.908 41.056 130.148 40.256C130.26 39.968 130.532 39.856 130.964 39.92C131.108 39.952 131.244 40.016 131.372 40.112C131.5 40.208 131.556 40.328 131.54 40.472L131.06 43.496C131.012 43.704 130.94 43.84 130.844 43.904C130.748 43.968 130.588 44 130.364 44H122.492C121.628 44 120.668 44.024 119.612 44.072ZM133.323 44.072C133.195 44.072 133.091 44.024 133.011 43.928C132.947 43.816 132.915 43.688 132.915 43.544C132.931 43.304 132.979 43.16 133.059 43.112C133.139 43.064 133.291 43.04 133.515 43.04C133.979 43.04 134.323 42.96 134.547 42.8C134.771 42.624 134.907 42.416 134.955 42.176C135.019 41.92 135.059 41.592 135.075 41.192V31.664C135.059 31.264 135.019 30.944 134.955 30.704C134.907 30.448 134.771 30.24 134.547 30.08C134.323 29.904 133.979 29.816 133.515 29.816H133.371C133.211 29.816 133.099 29.792 133.035 29.744C132.971 29.68 132.931 29.536 132.915 29.312C132.915 29.168 132.947 29.048 133.011 28.952C133.091 28.84 133.195 28.784 133.323 28.784C134.379 28.832 135.331 28.856 136.179 28.856C137.139 28.856 138.139 28.832 139.179 28.784C139.323 28.784 139.427 28.84 139.491 28.952C139.571 29.048 139.611 29.168 139.611 29.312C139.595 29.552 139.539 29.696 139.443 29.744C139.363 29.792 139.219 29.816 139.011 29.816C138.547 29.816 138.203 29.904 137.979 30.08C137.755 30.24 137.611 30.448 137.547 30.704C137.499 30.944 137.467 31.264 137.451 31.664V41.552C137.483 41.888 137.523 42.152 137.571 42.344C137.619 42.52 137.763 42.688 138.003 42.848C138.243 42.992 138.619 43.056 139.131 43.04H141.291C141.851 43.024 142.275 42.936 142.563 42.776C142.851 42.6 143.075 42.336 143.235 41.984C143.411 41.632 143.619 41.056 143.859 40.256C143.971 39.968 144.243 39.856 144.675 39.92C144.819 39.952 144.955 40.016 145.083 40.112C145.211 40.208 145.267 40.328 145.251 40.472L144.771 43.496C144.723 43.704 144.651 43.84 144.555 43.904C144.459 43.968 144.299 44 144.075 44H136.203C135.339 44 134.379 44.024 133.323 44.072ZM151.954 44.48C150.274 44.48 148.986 44.192 148.09 43.616C147.21 43.024 146.77 42.16 146.77 41.024C146.77 40.448 146.962 39.976 147.346 39.608C147.746 39.224 148.258 39.032 148.882 39.032C149.25 39.048 149.53 39.144 149.722 39.32C149.914 39.48 150.01 39.632 150.01 39.776C150.01 39.792 149.93 39.848 149.77 39.944C149.61 40.04 149.466 40.184 149.338 40.376C149.21 40.568 149.146 40.832 149.146 41.168C149.146 41.92 149.37 42.504 149.818 42.92C150.282 43.32 150.994 43.52 151.954 43.52C152.61 43.52 153.186 43.392 153.682 43.136C154.178 42.88 154.554 42.544 154.81 42.128C155.082 41.696 155.218 41.248 155.218 40.784C155.218 40.208 155.05 39.712 154.714 39.296C154.394 38.88 153.994 38.536 153.514 38.264C153.034 37.976 152.378 37.648 151.546 37.28C150.586 36.848 149.81 36.456 149.218 36.104C148.626 35.752 148.122 35.288 147.706 34.712C147.29 34.12 147.082 33.392 147.082 32.528C147.082 31.136 147.554 30.096 148.498 29.408C149.458 28.72 150.714 28.376 152.266 28.376C153.482 28.376 154.538 28.632 155.434 29.144C156.346 29.656 156.802 30.408 156.802 31.4C156.802 31.976 156.602 32.456 156.202 32.84C155.818 33.208 155.314 33.392 154.69 33.392C154.322 33.376 154.042 33.288 153.85 33.128C153.658 32.952 153.562 32.792 153.562 32.648C153.562 32.632 153.666 32.576 153.874 32.48C154.098 32.384 154.29 32.24 154.45 32.048C154.626 31.856 154.714 31.592 154.714 31.256C154.714 30.664 154.482 30.2 154.018 29.864C153.57 29.528 152.994 29.36 152.29 29.36C151.314 29.36 150.57 29.592 150.058 30.056C149.562 30.504 149.314 31.064 149.314 31.736C149.314 32.296 149.466 32.768 149.77 33.152C150.074 33.52 150.562 33.888 151.234 34.256C151.778 34.544 152.37 34.832 153.01 35.12C154.034 35.584 154.842 36.008 155.434 36.392C156.042 36.776 156.546 37.28 156.946 37.904C157.362 38.528 157.57 39.304 157.57 40.232C157.57 41.032 157.314 41.76 156.802 42.416C156.306 43.056 155.626 43.56 154.762 43.928C153.914 44.296 152.978 44.48 151.954 44.48ZM160.664 39.224C160.504 39.224 160.368 39.144 160.256 38.984C160.16 38.808 160.112 38.632 160.112 38.456C160.112 38.28 160.16 38.112 160.256 37.952C160.368 37.776 160.504 37.688 160.664 37.688H165.92C166.08 37.688 166.208 37.776 166.304 37.952C166.416 38.112 166.472 38.28 166.472 38.456C166.472 38.632 166.416 38.808 166.304 38.984C166.208 39.144 166.08 39.224 165.92 39.224H160.664ZM175.537 44.48C174.177 44.48 172.929 44.16 171.793 43.52C170.673 42.864 169.777 41.936 169.105 40.736C168.449 39.536 168.121 38.136 168.121 36.536C168.121 34.92 168.441 33.496 169.081 32.264C169.721 31.032 170.633 30.08 171.817 29.408C173.001 28.72 174.385 28.376 175.969 28.376C177.345 28.376 178.569 28.656 179.641 29.216C180.713 29.76 181.249 30.608 181.249 31.76C181.265 32.48 181.049 33.096 180.601 33.608C180.153 34.104 179.553 34.352 178.801 34.352C178.513 34.352 178.265 34.304 178.057 34.208C177.865 34.096 177.721 33.968 177.625 33.824C177.529 33.68 177.489 33.568 177.505 33.488C177.505 33.456 177.617 33.368 177.841 33.224C178.065 33.08 178.265 32.88 178.441 32.624C178.617 32.368 178.705 32.056 178.705 31.688C178.705 30.968 178.457 30.4 177.961 29.984C177.481 29.552 176.809 29.336 175.945 29.336C174.969 29.336 174.097 29.616 173.329 30.176C172.577 30.72 171.985 31.528 171.553 32.6C171.137 33.656 170.929 34.92 170.929 36.392C170.929 37.672 171.153 38.84 171.601 39.896C172.065 40.936 172.713 41.768 173.545 42.392C174.377 43 175.329 43.304 176.401 43.304C177.265 43.304 178.001 43.128 178.609 42.776C179.233 42.408 179.793 41.824 180.289 41.024C180.369 40.88 180.481 40.808 180.625 40.808C180.753 40.808 180.897 40.856 181.057 40.952C181.313 41.128 181.441 41.304 181.441 41.48C181.441 41.576 181.409 41.656 181.345 41.72C180.737 42.488 180.161 43.072 179.617 43.472C179.089 43.856 178.513 44.12 177.889 44.264C177.265 44.408 176.481 44.48 175.537 44.48ZM191.057 44.48C189.537 44.48 188.193 44.12 187.025 43.4C185.873 42.664 184.977 41.696 184.337 40.496C183.713 39.296 183.401 38.008 183.401 36.632C183.401 34.952 183.777 33.488 184.529 32.24C185.297 30.992 186.273 30.04 187.457 29.384C188.641 28.712 189.841 28.376 191.057 28.376C192.593 28.376 193.945 28.744 195.113 29.48C196.297 30.2 197.201 31.16 197.825 32.36C198.465 33.544 198.785 34.824 198.785 36.2C198.785 37.88 198.401 39.352 197.633 40.616C196.865 41.864 195.881 42.824 194.681 43.496C193.481 44.152 192.273 44.48 191.057 44.48ZM191.033 43.424C192.121 43.424 193.025 43.104 193.745 42.464C194.481 41.808 195.025 40.936 195.377 39.848C195.745 38.744 195.929 37.528 195.929 36.2C195.929 34.968 195.745 33.84 195.377 32.816C195.009 31.776 194.457 30.952 193.721 30.344C192.985 29.72 192.089 29.408 191.033 29.408C189.433 29.408 188.225 30.088 187.409 31.448C186.609 32.792 186.209 34.496 186.209 36.56C186.209 37.808 186.385 38.952 186.737 39.992C187.105 41.032 187.649 41.864 188.369 42.488C189.089 43.112 189.977 43.424 191.033 43.424ZM201.129 44.072C200.985 44.072 200.873 44.024 200.793 43.928C200.729 43.816 200.697 43.688 200.697 43.544C200.713 43.304 200.761 43.16 200.841 43.112C200.921 43.064 201.073 43.04 201.297 43.04C201.761 43.04 202.097 42.96 202.305 42.8C202.529 42.624 202.665 42.424 202.713 42.2C202.761 41.96 202.793 41.624 202.809 41.192L202.857 31.664C202.857 31.184 202.801 30.824 202.689 30.584C202.593 30.328 202.433 30.144 202.209 30.032C201.985 29.92 201.665 29.824 201.249 29.744C200.977 29.696 200.809 29.648 200.745 29.6C200.681 29.552 200.649 29.416 200.649 29.192C200.649 29 200.697 28.872 200.793 28.808C200.905 28.744 201.073 28.712 201.297 28.712C202.289 28.712 203.073 28.784 203.649 28.928C204.225 29.056 204.729 29.296 205.161 29.648C205.609 30 206.097 30.536 206.625 31.256L213.201 39.896H213.273L213.225 31.664C213.209 31.232 213.177 30.904 213.129 30.68C213.081 30.44 212.945 30.24 212.721 30.08C212.513 29.904 212.177 29.816 211.713 29.816H211.569C211.409 29.816 211.289 29.792 211.209 29.744C211.145 29.68 211.105 29.536 211.089 29.312C211.089 29.168 211.129 29.048 211.209 28.952C211.289 28.84 211.393 28.784 211.521 28.784C212.545 28.832 213.313 28.856 213.825 28.856C214.129 28.856 214.713 28.84 215.577 28.808L216.081 28.784C216.225 28.784 216.329 28.84 216.393 28.952C216.473 29.048 216.513 29.168 216.513 29.312C216.497 29.552 216.449 29.696 216.369 29.744C216.289 29.792 216.137 29.816 215.913 29.816C215.449 29.816 215.105 29.904 214.881 30.08C214.673 30.24 214.545 30.44 214.497 30.68C214.449 30.904 214.417 31.232 214.401 31.664L214.353 43.76C214.337 43.968 214.137 44.072 213.753 44.072C213.449 44.072 213.217 43.968 213.057 43.76L204.009 31.664H203.937L203.985 41.192C204.001 41.624 204.033 41.96 204.081 42.2C204.129 42.424 204.257 42.624 204.465 42.8C204.689 42.96 205.033 43.04 205.497 43.04H205.641C205.801 43.04 205.913 43.072 205.977 43.136C206.057 43.184 206.105 43.32 206.121 43.544C206.121 43.688 206.081 43.816 206.001 43.928C205.937 44.024 205.833 44.072 205.689 44.072C204.665 44.024 203.889 44 203.361 44C203.041 44 202.481 44.016 201.681 44.048L201.129 44.072ZM218.824 44.072C218.68 44.072 218.568 44.024 218.488 43.928C218.424 43.816 218.392 43.688 218.392 43.544C218.408 43.304 218.456 43.16 218.536 43.112C218.616 43.064 218.768 43.04 218.992 43.04C219.456 43.04 219.792 42.96 220 42.8C220.224 42.624 220.36 42.424 220.408 42.2C220.456 41.96 220.488 41.624 220.504 41.192L220.552 31.664C220.552 31.184 220.496 30.824 220.384 30.584C220.288 30.328 220.128 30.144 219.904 30.032C219.68 29.92 219.36 29.824 218.944 29.744C218.672 29.696 218.504 29.648 218.44 29.6C218.376 29.552 218.344 29.416 218.344 29.192C218.344 29 218.392 28.872 218.488 28.808C218.6 28.744 218.768 28.712 218.992 28.712C219.984 28.712 220.768 28.784 221.344 28.928C221.92 29.056 222.424 29.296 222.856 29.648C223.304 30 223.792 30.536 224.32 31.256L230.896 39.896H230.968L230.92 31.664C230.904 31.232 230.872 30.904 230.824 30.68C230.776 30.44 230.64 30.24 230.416 30.08C230.208 29.904 229.872 29.816 229.408 29.816H229.264C229.104 29.816 228.984 29.792 228.904 29.744C228.84 29.68 228.8 29.536 228.784 29.312C228.784 29.168 228.824 29.048 228.904 28.952C228.984 28.84 229.088 28.784 229.216 28.784C230.24 28.832 231.008 28.856 231.52 28.856C231.824 28.856 232.408 28.84 233.272 28.808L233.776 28.784C233.92 28.784 234.024 28.84 234.088 28.952C234.168 29.048 234.208 29.168 234.208 29.312C234.192 29.552 234.144 29.696 234.064 29.744C233.984 29.792 233.832 29.816 233.608 29.816C233.144 29.816 232.8 29.904 232.576 30.08C232.368 30.24 232.24 30.44 232.192 30.68C232.144 30.904 232.112 31.232 232.096 31.664L232.048 43.76C232.032 43.968 231.832 44.072 231.448 44.072C231.144 44.072 230.912 43.968 230.752 43.76L221.704 31.664H221.632L221.68 41.192C221.696 41.624 221.728 41.96 221.776 42.2C221.824 42.424 221.952 42.624 222.16 42.8C222.384 42.96 222.728 43.04 223.192 43.04H223.336C223.496 43.04 223.608 43.072 223.672 43.136C223.752 43.184 223.8 43.32 223.816 43.544C223.816 43.688 223.776 43.816 223.696 43.928C223.632 44.024 223.528 44.072 223.384 44.072C222.36 44.024 221.584 44 221.056 44C220.736 44 220.176 44.016 219.376 44.048L218.824 44.072ZM236.471 44.072C236.343 44.072 236.239 44.024 236.159 43.928C236.095 43.816 236.063 43.688 236.063 43.544C236.079 43.304 236.127 43.16 236.207 43.112C236.287 43.064 236.439 43.04 236.663 43.04C237.127 43.04 237.471 42.96 237.695 42.8C237.919 42.624 238.055 42.416 238.103 42.176C238.167 41.92 238.207 41.592 238.223 41.192V31.664C238.207 31.264 238.167 30.944 238.103 30.704C238.055 30.448 237.919 30.24 237.695 30.08C237.471 29.904 237.127 29.816 236.663 29.816H236.519C236.359 29.816 236.247 29.792 236.183 29.744C236.119 29.68 236.079 29.536 236.063 29.312C236.063 29.168 236.095 29.048 236.159 28.952C236.239 28.84 236.343 28.784 236.471 28.784C237.527 28.832 238.479 28.856 239.327 28.856H246.863C247.279 28.856 247.487 29.048 247.487 29.432L247.559 32.792C247.559 32.936 247.487 33.056 247.343 33.152C247.199 33.232 247.055 33.272 246.911 33.272C246.719 33.272 246.551 33.24 246.407 33.176C246.263 33.096 246.183 32.984 246.167 32.84C246.039 32.056 245.895 31.464 245.735 31.064C245.591 30.648 245.367 30.344 245.063 30.152C244.775 29.944 244.359 29.832 243.815 29.816H240.599V35.912H244.943C245.055 35.928 245.143 35.992 245.207 36.104C245.271 36.2 245.303 36.32 245.303 36.464C245.303 36.592 245.271 36.704 245.207 36.8C245.143 36.896 245.055 36.944 244.943 36.944H240.599V41.48C240.631 41.816 240.671 42.088 240.719 42.296C240.767 42.488 240.911 42.664 241.151 42.824C241.391 42.984 241.767 43.056 242.279 43.04H244.487C245.047 43.024 245.471 42.936 245.759 42.776C246.047 42.6 246.271 42.336 246.431 41.984C246.607 41.632 246.815 41.056 247.055 40.256C247.167 39.968 247.439 39.856 247.871 39.92C248.031 39.952 248.167 40.016 248.279 40.112C248.407 40.208 248.463 40.328 248.447 40.472L247.967 43.496C247.919 43.704 247.847 43.84 247.751 43.904C247.655 43.968 247.495 44 247.271 44H239.351C238.487 44 237.527 44.024 236.471 44.072ZM257.873 44.48C256.513 44.48 255.265 44.16 254.129 43.52C253.009 42.864 252.113 41.936 251.441 40.736C250.785 39.536 250.457 38.136 250.457 36.536C250.457 34.92 250.777 33.496 251.417 32.264C252.057 31.032 252.969 30.08 254.153 29.408C255.337 28.72 256.721 28.376 258.305 28.376C259.681 28.376 260.905 28.656 261.977 29.216C263.049 29.76 263.585 30.608 263.585 31.76C263.601 32.48 263.385 33.096 262.937 33.608C262.489 34.104 261.889 34.352 261.137 34.352C260.849 34.352 260.601 34.304 260.393 34.208C260.201 34.096 260.057 33.968 259.961 33.824C259.865 33.68 259.825 33.568 259.841 33.488C259.841 33.456 259.953 33.368 260.177 33.224C260.401 33.08 260.601 32.88 260.777 32.624C260.953 32.368 261.041 32.056 261.041 31.688C261.041 30.968 260.793 30.4 260.297 29.984C259.817 29.552 259.145 29.336 258.281 29.336C257.305 29.336 256.433 29.616 255.665 30.176C254.913 30.72 254.321 31.528 253.889 32.6C253.473 33.656 253.265 34.92 253.265 36.392C253.265 37.672 253.489 38.84 253.937 39.896C254.401 40.936 255.049 41.768 255.881 42.392C256.713 43 257.665 43.304 258.737 43.304C259.601 43.304 260.337 43.128 260.945 42.776C261.569 42.408 262.129 41.824 262.625 41.024C262.705 40.88 262.817 40.808 262.961 40.808C263.089 40.808 263.233 40.856 263.393 40.952C263.649 41.128 263.777 41.304 263.777 41.48C263.777 41.576 263.745 41.656 263.681 41.72C263.073 42.488 262.497 43.072 261.953 43.472C261.425 43.856 260.849 44.12 260.225 44.264C259.601 44.408 258.817 44.48 257.873 44.48ZM268.905 44.072C268.761 44.072 268.649 44.024 268.569 43.928C268.505 43.816 268.473 43.688 268.473 43.544C268.489 43.304 268.537 43.16 268.617 43.112C268.697 43.064 268.849 43.04 269.073 43.04C269.537 43.04 269.881 42.96 270.105 42.8C270.329 42.624 270.465 42.416 270.513 42.176C270.577 41.92 270.617 41.592 270.633 41.192V29.744H268.977C268.433 29.76 268.009 29.88 267.705 30.104C267.417 30.312 267.193 30.632 267.033 31.064C266.889 31.48 266.761 32.08 266.649 32.864C266.633 32.992 266.537 33.096 266.361 33.176C266.185 33.256 266.001 33.296 265.809 33.296C265.665 33.296 265.529 33.256 265.401 33.176C265.289 33.08 265.233 32.96 265.233 32.816L265.305 29.432C265.305 29.048 265.521 28.856 265.953 28.856H277.689C278.105 28.856 278.313 29.048 278.313 29.432L278.409 32.816C278.409 32.96 278.345 33.08 278.217 33.176C278.089 33.256 277.953 33.296 277.809 33.296C277.617 33.296 277.433 33.256 277.257 33.176C277.097 33.096 277.009 32.992 276.993 32.864C276.865 32.064 276.729 31.456 276.585 31.04C276.441 30.624 276.217 30.312 275.913 30.104C275.609 29.88 275.185 29.76 274.641 29.744H273.009V41.192C273.025 41.592 273.057 41.92 273.105 42.176C273.169 42.416 273.313 42.624 273.537 42.8C273.761 42.96 274.105 43.04 274.569 43.04H274.713C274.857 43.04 274.961 43.072 275.025 43.136C275.105 43.184 275.153 43.32 275.169 43.544C275.169 43.688 275.129 43.816 275.049 43.928C274.985 44.024 274.881 44.072 274.737 44.072C273.713 44.024 272.769 44 271.905 44C270.945 44 269.945 44.024 268.905 44.072Z" fill="#C8CC0F" fill-opacity="0.6"/>
<defs>
<filter id="filter0_i" x="0" y="0" width="80.7107" height="77" filterUnits="userSpaceOnUse" color-interpolation-filters="sRGB">
<feFlood flood-opacity="0" result="BackgroundImageFix"/>
<feBlend mode="normal" in="SourceGraphic" in2="BackgroundImageFix" result="shape"/>
<feColorMatrix in="SourceAlpha" type="matrix" values="0 0 0 0 0 0 0 0 0 0 0 0 0 0 0 0 0 0 127 0" result="hardAlpha"/>
<feOffset dy="4"/>
<feGaussianBlur stdDeviation="2"/>
<feComposite in2="hardAlpha" operator="arithmetic" k2="-1" k3="1"/>
<feColorMatrix type="matrix" values="0 0 0 0 0 0 0 0 0 0 0 0 0 0 0 0 0 0 0.25 0"/>
<feBlend mode="normal" in2="shape" result="effect1_innerShadow"/>
</filter>
</defs>
</svg>
